<?xml version="1.0" encoding="UTF-8" standalone="no"?>
<!DOCTYPE svg PUBLIC "-//W3C//DTD SVG 20010904//EN"
              "http://www.w3.org/TR/2001/REC-SVG-20010904/DTD/svg10.dtd">

<svg xmlns="http://www.w3.org/2000/svg"
     width="7.72222in" height="7.72222in"
     viewBox="0 0 556 556">
  <path id="Selection"
        fill="white"
        d="M 139.00,216.00
           C 134.31,209.28 130.05,203.17 142.00,203.00
             166.21,202.67 181.79,203.79 205.00,193.85
             205.00,193.85 247.00,173.26 247.00,173.26
             268.46,162.87 296.05,154.28 320.00,154.00
             339.74,153.77 360.02,156.20 378.00,164.78
             378.00,164.78 400.00,177.80 400.00,177.80
             402.75,179.47 407.97,182.85 411.00,183.34
             415.65,184.11 417.65,180.81 428.00,181.02
             428.00,181.02 446.00,182.97 446.00,182.97
             453.57,182.96 463.25,178.44 469.00,173.67
             484.08,161.18 487.94,138.17 476.37,122.00
             470.07,113.20 458.29,105.56 450.00,98.56
             440.43,90.49 432.06,80.77 427.46,69.00
             420.83,52.04 424.05,14.56 449.00,16.09
             460.50,16.80 467.61,24.93 477.00,29.63
             480.36,30.94 507.44,39.45 509.00,41.00
             509.30,41.21 509.91,42.04 509.00,43.00
             507.90,44.23 492.15,45.01 492.15,45.01
             492.15,45.01 506.01,47.84 507.48,48.77
             508.95,49.70 509.51,51.69 508.00,53.00
             506.38,54.26 489.00,54.00 489.00,54.00
             489.00,54.00 479.00,54.00 479.00,54.00
             471.12,54.01 449.66,56.62 457.01,69.00
             457.88,70.46 458.96,71.74 460.10,73.00
             471.14,85.10 485.83,89.65 498.64,109.00
             507.63,122.57 508.18,134.41 508.00,150.00
             507.76,170.53 493.28,194.73 478.83,208.58
             470.14,216.90 463.17,221.46 453.00,227.60
             448.85,230.10 440.36,234.88 438.00,239.04
             435.54,244.05 438.20,250.65 438.00,256.00
             436.17,279.22 429.47,294.24 409.00,306.94
             387.80,320.09 363.26,321.96 339.00,322.00
             336.21,322.00 332.65,321.78 330.17,323.17
             326.39,325.31 325.38,329.72 320.95,333.79
             320.95,333.79 307.04,343.21 307.04,343.21
             302.91,346.90 298.75,354.08 296.00,359.00
             296.00,359.00 365.00,337.00 365.00,337.00
             374.52,333.89 390.40,328.10 400.00,330.94
             410.49,334.04 421.29,355.68 427.34,365.00
             429.14,367.76 434.76,375.27 432.87,378.58
             431.03,381.77 425.51,379.80 423.00,378.58
             413.02,373.82 410.00,367.17 403.00,361.00
             402.31,367.32 405.32,376.44 398.00,374.21
             387.49,370.99 393.61,355.78 384.00,355.32
             379.81,355.12 363.92,360.44 359.00,361.86
             359.00,361.86 327.00,371.98 327.00,371.98
             327.00,371.98 303.00,379.71 303.00,379.71
             297.03,381.99 292.27,386.45 286.00,388.07
             275.12,390.89 267.65,381.17 268.53,371.00
             269.05,365.00 275.80,346.72 278.67,341.17
             281.24,336.19 281.47,338.05 284.00,331.00
             284.00,331.00 259.00,340.41 259.00,340.41
             259.00,340.41 238.00,355.85 238.00,355.85
             238.00,355.85 215.14,373.18 215.14,373.18
             209.86,378.60 212.88,382.03 204.96,389.96
             197.90,397.01 193.47,395.91 188.44,401.13
             188.44,401.13 167.12,428.00 167.12,428.00
             167.12,428.00 135.19,471.00 135.19,471.00
             135.19,471.00 116.54,499.00 116.54,499.00
             116.54,499.00 96.43,521.00 96.43,521.00
             92.34,526.70 91.50,528.95 88.56,534.98
             87.66,536.83 86.42,539.37 84.00,539.37
             79.72,539.37 78.31,531.20 78.09,528.00
             77.22,515.36 84.72,504.25 91.00,494.00
             89.14,494.69 85.06,496.57 83.23,496.14
             78.58,495.05 80.55,487.84 82.05,485.00
             89.01,471.88 104.22,472.48 110.00,468.99
             112.94,467.22 115.22,464.66 117.33,462.00
             117.33,462.00 167.96,390.00 167.96,390.00
             173.23,381.93 170.66,376.57 177.21,369.01
             184.62,360.47 189.61,362.47 202.00,353.10
             218.88,340.34 228.15,330.58 241.00,314.00
             224.62,310.71 200.01,304.08 185.00,297.23
             179.26,294.61 174.37,292.34 169.00,288.91
             164.89,286.29 161.22,283.06 156.00,283.22
             156.00,283.22 146.00,285.41 146.00,285.41
             133.73,287.61 127.28,288.58 116.00,294.86
             111.97,297.10 102.72,304.34 98.31,302.39
             96.06,301.39 95.55,298.19 95.30,296.00
             94.59,289.69 97.41,282.04 99.00,276.00
             94.66,277.96 89.49,281.73 86.09,285.09
             83.43,287.71 80.54,292.21 77.00,293.38
             71.71,295.13 69.22,290.45 68.79,286.00
             67.94,277.40 72.14,269.16 74.00,261.00
             74.00,261.00 58.00,267.74 58.00,267.74
             56.08,268.63 53.40,270.00 51.56,268.87
             47.26,266.69 50.59,257.25 51.56,254.00
             56.62,241.25 65.69,229.03 77.00,221.36
             91.12,211.77 100.28,209.92 117.00,210.00
             120.11,210.02 121.89,210.01 125.00,210.62
             131.92,211.96 130.98,214.09 139.00,216.00 Z
           M 139.00,216.00
           C 139.00,216.00 139.00,216.00 139.00,216.00
             139.00,216.00 139.00,216.00 139.00,216.00
             139.00,216.00 139.00,216.00 139.00,216.00 Z" />
</svg>